<svg width="45" height="45" viewBox="0 0 45 45" fill="none" xmlns="http://www.w3.org/2000/svg">
<path d="M1.00004 21.5005H4.511C7.13865 21.5005 9.29948 23.7742 9.33683 26.4117L9.33693 26.4188C9.34177 27.1076 9.21039 27.7906 8.9503 28.4284C8.69021 29.0663 8.30656 29.6464 7.82142 30.1354C6.94799 31.0162 5.80442 31.536 4.59136 31.536H1.00004V39.4127C1.00149 40.6289 1.48525 41.7948 2.34522 42.6548C3.20531 43.5149 4.37148 43.9987 5.58784 44H13.464V40.4891C13.464 38.9119 14.2964 37.8614 14.9455 37.2872L14.9515 37.2819L14.9576 37.2767C15.9323 36.442 17.1699 35.9774 18.453 35.9645C19.8707 35.9444 21.2556 36.4552 22.2342 37.4174C22.6354 37.8048 22.9542 38.2691 23.1717 38.7827C23.3896 39.2975 23.5012 39.8511 23.4996 40.4101M1.00004 21.5005L22.4996 40.4087M1.00004 21.5005L1.00005 13.5268L1.00003 13.5229C0.997673 12.9269 1.11637 12.3367 1.34893 11.788C1.5815 11.2393 1.92307 10.7436 2.35296 10.3309L2.35463 10.3292C3.22051 9.49404 4.37843 9.03016 5.58147 9.03653V9.03655H5.58676H11.9389H12.9389V8.03655V6.58211C12.9389 5.84082 13.0865 5.10694 13.3732 4.42333C13.6599 3.73971 14.0799 3.12004 14.6086 2.60048C15.1374 2.08092 15.7643 1.67189 16.4529 1.39724C17.1414 1.1226 17.8778 0.987851 18.6189 1.00086L18.619 1.00086C21.6265 1.0534 24.1011 3.58604 24.1011 6.66348V8.03655V9.03655H25.1011H31.4532V9.0366L31.4639 9.03649C32.0566 9.03012 32.6446 9.14216 33.1934 9.36604C33.7422 9.58991 34.2408 9.92112 34.6599 10.3402L35.367 9.63312M1.00004 21.5005L18.6365 0.00101371C22.2013 0.0632891 25.1011 3.05251 25.1011 6.66348V7.03655V8.03655H26.1011H31.4532C32.179 8.02875 32.899 8.16595 33.5711 8.44011C34.2432 8.71427 34.8538 9.11987 35.367 9.63312M23.4996 40.4101C23.4996 40.4107 23.4996 40.4114 23.4996 40.412L22.4996 40.4087M23.4996 40.4101V40.4087H22.4996M23.4996 40.4101V44M22.4996 40.4087V44H23.4996M23.4996 44V45H31.4532C34.4916 45 36.9636 42.4939 36.9636 39.4133V34.0612V33.0612H37.9636H38.418C42.0471 33.0612 44.9991 30.069 44.9991 26.3917C44.9991 22.8119 42.0099 19.899 38.3356 19.899H37.9636H36.9636V18.899V13.5469C36.9714 12.8211 36.8342 12.1011 36.56 11.429C36.2858 10.7569 35.8802 10.1464 35.367 9.63312M23.4996 44H31.4532C33.9264 44 35.9636 41.9546 35.9636 39.4133V33.0612V32.0612H36.9636H38.418C41.4822 32.0612 43.9991 29.5294 43.9991 26.3917C43.9991 23.3885 41.4822 20.899 38.3356 20.899H36.9636H35.9636V19.899V13.5469V13.5362L35.9636 13.5362C35.97 12.9435 35.858 12.3555 35.6341 11.8067C35.4102 11.2579 35.079 10.7593 34.6599 10.3402L35.367 9.63312M14.464 44V45H13.464L14.464 44Z" stroke="white" stroke-width="2"/>
</svg>
