<svg width="44" height="45" viewBox="0 0 44 45" fill="none" xmlns="http://www.w3.org/2000/svg">
<path d="M16.5442 41.1688C13.5117 40.3159 10.8447 38.7455 8.51621 36.5523C7.78516 36.8096 7.04058 37.0668 6.28246 37.3105C5.93047 37.4188 5.57848 37.3782 5.21296 37.2428C4.56314 36.9991 4.17054 36.5253 3.88625 35.9431C3.49365 35.1715 2.99275 34.4675 2.60015 33.6958C2.24816 32.9783 1.73372 32.3556 1.43589 31.611C1.28697 31.2455 0.89437 31.0018 0.89437 30.5415C0.542385 29.9729 0.880832 29.472 1.0839 28.9711C1.13805 28.8357 1.20574 28.6597 1.32758 28.6056C1.81495 28.389 2.05863 27.9016 2.46477 27.6038C2.6543 27.4684 2.85737 27.3195 3.07397 27.157C2.7626 25.6002 2.49184 24.0433 2.49184 22.4458C2.49184 20.8619 2.77614 19.3321 3.07397 17.8159C2.54599 17.3285 2.05863 16.8547 1.54419 16.4079C1.01621 15.9477 0.704839 15.3791 0.772529 14.7834C0.813143 14.4585 0.907908 14.1065 1.07036 13.8357C1.57127 13.037 2.03155 12.1977 2.51892 11.3854C2.91152 10.7356 3.24997 10.0587 3.68318 9.42238C3.91332 9.09747 4.0487 8.71841 4.27885 8.37996C4.7256 7.74368 5.6191 7.43231 6.35014 7.64892C6.99996 7.83845 7.60917 8.12274 8.27253 8.24459C8.34022 8.25812 8.39437 8.35289 8.46206 8.42058C10.8041 6.24097 13.4711 4.68412 16.5306 3.77708C16.6525 3.41155 16.6796 3.01895 16.8285 2.63989C16.9368 2.3556 16.9097 2.00361 16.9639 1.69224C17.1128 0.879964 17.6137 0.406137 18.3312 0.162455C18.5884 0.0812274 18.8456 0 19.157 0C21.0523 0.0270758 22.9476 0.0270758 24.8429 0C25.3844 0 25.8447 0.216607 26.2779 0.460289C26.6705 0.663357 26.8871 1.09657 26.9954 1.50271C27.185 2.24729 27.2933 3.00542 27.4422 3.79061C30.4882 4.65704 33.1552 6.2139 35.4837 8.40704C36.2148 8.14982 36.9593 7.8926 37.7175 7.64892C38.0695 7.54061 38.4214 7.58123 38.787 7.71661C39.4368 7.96029 39.8294 8.43412 40.1137 9.01625C40.5063 9.78791 41.0072 10.4919 41.3998 11.2635C41.7518 11.981 42.2662 12.6038 42.564 13.3484C42.713 13.7139 43.1056 13.9576 43.1056 14.4179C43.4575 14.9865 43.1191 15.4874 42.916 15.9883C42.8619 16.1236 42.7942 16.2996 42.6723 16.3538C42.185 16.5704 41.9413 17.0578 41.5352 17.3556C41.3456 17.491 41.1426 17.6399 40.9259 17.8023C41.2373 19.3592 41.5081 20.9161 41.5081 22.5135C41.5081 24.0975 41.2644 25.6273 40.9259 27.1435C41.4539 27.6309 41.9413 28.1047 42.4557 28.5514C42.9837 29.0117 43.2951 29.5803 43.2274 30.176C43.1868 30.5009 43.1056 30.8529 42.9296 31.1236C42.4422 31.9088 41.9819 32.7211 41.5081 33.5199C40.9124 34.5081 40.425 35.5776 39.7346 36.5117C39.6128 37.0262 39.1254 37.0668 38.7734 37.2563C38.3944 37.4594 38.0153 37.4052 37.5956 37.2834C36.9729 37.1074 36.3772 36.796 35.7274 36.7148C35.6597 36.7013 35.6056 36.6065 35.5379 36.5388C33.1958 38.7455 30.5424 40.3159 27.4422 41.1958C27.2933 41.9269 27.1579 42.685 26.9954 43.4296C26.833 44.1606 26.3456 44.6209 25.6552 44.8375C25.398 44.9188 25.1272 45 24.8294 45C22.9341 44.9729 21.0388 44.9729 19.1435 45C18.6019 45 18.1417 44.7834 17.7084 44.5397C17.3158 44.3366 17.0857 43.9034 17.0045 43.4973C16.8556 42.6986 16.7066 41.954 16.5442 41.1688ZM17.4242 29.2419C17.6949 29.093 18.0063 28.9982 18.0198 28.6733C18.0469 28.1859 18.1146 27.685 18.0063 27.2247C17.8167 26.4395 17.4783 25.6814 17.2752 24.8962C17.1399 24.3953 16.842 23.9215 16.8556 23.38C16.4223 22.3105 16.1516 21.1868 15.7861 20.1038C15.4882 19.2103 15.2716 18.2897 14.9467 17.4097C14.7707 16.9224 14.7301 16.3809 14.4052 15.9477C14.3781 15.907 14.3646 15.88 14.3646 15.88C13.9991 15.6363 13.62 15.7175 13.2951 15.7175C13.1056 15.8935 12.9431 16.0424 12.7942 16.1778C12.7806 16.611 12.4693 16.9495 12.5234 17.3691C12.0496 18.4251 11.8465 19.5623 11.4539 20.6453C11.2509 21.2004 11.129 21.769 10.9666 22.3375C10.8177 22.9061 10.4927 23.4206 10.4927 24.0298C9.9783 25.1805 9.72108 26.4125 9.34202 27.6173C9.24726 27.9152 9.1931 28.1995 9.38264 28.4838C9.43679 28.565 9.40971 28.6868 9.40971 28.6733C9.62632 28.9034 9.78877 29.0659 9.92415 29.2283C10.1814 29.2283 10.4521 29.2283 10.7364 29.2283C10.926 28.9847 11.1155 28.7545 11.2915 28.5244C11.2509 27.7527 11.4133 27.2383 11.7653 26.4125C13.092 26.4125 14.4187 26.4125 15.7455 26.4125C15.8538 26.8457 15.9079 27.2653 16.0568 27.6579C16.1245 27.8204 16.1922 27.9829 16.1651 28.1453C16.1245 28.6462 16.287 29.0388 16.8556 29.2283C16.9909 29.2419 17.194 29.2419 17.4242 29.2419ZM20.592 29.2419C20.9575 29.2148 21.3772 29.3231 21.6751 29.0253C21.7834 28.8899 21.8781 28.7545 22.0135 28.565C22.0135 27.2112 22.0135 25.7897 22.0135 24.3682C23.0018 24.3682 23.9765 24.3276 24.9377 24.3818C25.5198 24.4088 25.9936 24.2329 26.4539 23.9486C26.6705 23.8132 26.8601 23.6101 27.0496 23.4206C27.5505 22.9332 27.7942 22.3375 27.8077 21.6336C27.8077 20.5235 27.8077 19.4269 27.8077 18.3168C27.8077 18.1543 27.7671 17.9783 27.7265 17.8159C27.5776 17.2338 27.2662 16.8005 26.8465 16.4215C26.3592 15.9747 25.7906 15.704 25.1137 15.704C23.5974 15.704 22.0947 15.704 20.5649 15.704C20.416 15.8664 20.2671 16.0289 20.0911 16.1913C20.0911 20.361 20.0911 24.5578 20.0911 28.7681C20.2671 28.917 20.4296 29.0794 20.592 29.2419ZM30.3393 29.2419C31.2734 29.2419 32.2211 29.2419 33.1552 29.2419C33.3176 29.0794 33.4801 28.917 33.6426 28.7681C33.6426 28.5108 33.6426 28.2671 33.6426 28.0099C33.6426 27.9829 33.6426 27.9693 33.6426 27.9558C33.4395 27.5767 33.1281 27.3466 32.722 27.306C32.722 24.0704 32.722 20.8484 32.722 17.694C33.0198 17.5451 33.277 17.4097 33.5749 17.2473C33.6155 16.8953 33.6426 16.5298 33.6696 16.2726C33.453 16.0289 33.3041 15.8529 33.1823 15.7175C32.2075 15.7175 31.2599 15.7175 30.4205 15.7175C30.1904 15.9206 30.0279 16.0695 29.8249 16.259C29.8655 16.5839 29.9196 16.9495 29.9602 17.2608C30.2852 17.4233 30.5424 17.5587 30.7725 17.6805C30.7725 20.9025 30.7725 24.1245 30.7725 27.3195C30.6371 27.3466 30.4882 27.3195 30.4341 27.3872C30.2445 27.5767 29.9196 27.6309 29.8519 27.9422C29.8519 28.213 29.8519 28.4838 29.8519 28.7545C30.0144 28.917 30.1769 29.0794 30.3393 29.2419Z" fill="white"/>
<path d="M15.028 24.3409C14.2292 24.368 13.3899 24.3815 12.5505 24.4086C12.5235 24.4086 12.4828 24.4628 12.4016 24.5305C12.4151 23.6911 12.889 23.0142 12.9431 22.2425C13.3493 21.5656 13.3899 20.7669 13.6606 20.0088C13.7419 20.09 13.8637 20.1712 13.8637 20.2389C13.8772 20.8211 14.2157 21.322 14.324 21.877C14.4052 22.2561 14.6218 22.6216 14.676 23.0007C14.7301 23.488 15.055 23.8536 15.028 24.3409Z" fill="white"/>
<path d="M25.926 21.7153C25.8313 21.8642 25.75 22.0131 25.6417 22.1485C25.4522 22.3651 25.2085 22.487 24.8971 22.4734C23.9495 22.4599 23.0018 22.4734 22.0271 22.4734C22.0271 20.8624 22.0271 19.2514 22.0271 17.5998C23.0154 17.5998 24.0307 17.5862 25.0325 17.5998C25.5063 17.6133 25.9125 18.1007 25.926 18.6151C25.926 19.468 25.926 20.3209 25.926 21.1738C25.926 21.3633 25.926 21.5393 25.926 21.7153Z" fill="white"/>
</svg>
