<svg width="45" height="46" viewBox="0 0 45 46" fill="none" xmlns="http://www.w3.org/2000/svg">
<g clip-path="url(#clip0_7568_1067)">
<path d="M5.925 7.84961V38.2246C2.25 34.1746 0 28.8496 0 22.9996C0 17.1496 2.25 11.8246 5.925 7.84961Z" fill="white"/>
<path d="M8.32495 11.1504L21.3 37.1754H8.32495V11.1504Z" fill="white"/>
<path d="M22.5 34.2502L9.75 8.8252H35.25L22.5 34.2502Z" fill="white"/>
<path d="M22.5001 0.5C28.3501 0.5 33.6751 2.75 37.6501 6.425H7.3501C11.3251 2.75 16.6501 0.5 22.5001 0.5Z" fill="white"/>
<path d="M36.675 37.1754H23.7L36.675 11.1504V37.1754Z" fill="white"/>
<path d="M37.6501 39.5752C33.6751 43.2502 28.3501 45.5002 22.5001 45.5002C16.6501 45.5002 11.3251 43.2502 7.3501 39.5752H37.6501Z" fill="white"/>
<path d="M39.075 38.1496V7.84961C42.75 11.8246 45 17.1496 45 22.9996C45 28.8496 42.75 34.1746 39.075 38.1496Z" fill="white"/>
<path d="M8.32495 11.1504L21.3 37.1754H8.32495V11.1504Z" fill="white"/>
<path d="M22.5 34.2502L9.75 8.8252H35.25L22.5 34.2502Z" fill="white"/>
<path d="M23.7 37.1754L36.675 11.1504V37.1754H23.7Z" fill="white"/>
<path d="M9.75 8.8252H35.25L22.5 34.2502L9.75 8.8252Z" fill="white"/>
</g>
<defs>
<clipPath id="clip0_7568_1067">
<rect width="45" height="45" fill="white" transform="translate(0 0.5)"/>
</clipPath>
</defs>
</svg>
