<svg width="49" height="45" viewBox="0 0 49 45" fill="none" xmlns="http://www.w3.org/2000/svg">
<g clip-path="url(#clip0_7568_1055)">
<path fill-rule="evenodd" clip-rule="evenodd" d="M47.5103 11.8229L43.2499 17.7812L38.9895 11.8229H41.3124C41.1353 7.39583 37.4791 3.85417 33.0103 3.85417C29.2395 3.85417 26.0416 6.38541 25.0312 9.83333C23.802 9.4375 22.5312 9.1875 21.2395 9.07291C21.3853 8.52083 21.5728 7.96875 21.802 7.4375C22.4166 5.98958 23.2916 4.6875 24.4062 3.57292C25.5207 2.45833 26.8228 1.57292 28.2707 0.96875C29.7707 0.322917 31.3645 0 33.0103 0C34.6562 0 36.2499 0.322917 37.7499 0.958333C39.1978 1.57292 40.4999 2.44792 41.6145 3.5625C42.7291 4.67708 43.6041 5.97916 44.2187 7.42708C44.8124 8.82291 45.1353 10.3021 45.1666 11.8229H47.5103Z" fill="white"/>
<path fill-rule="evenodd" clip-rule="evenodd" d="M41.552 44.9997V42.4372H26.8645C26.9687 42.3851 27.0728 42.3434 27.177 42.2913C28.7708 41.5309 30.2395 40.5413 31.552 39.333C31.7291 39.1663 31.8958 39.0101 32.052 38.8538C32.2291 38.6768 32.4166 38.4893 32.5937 38.2913C32.802 38.0622 33.0103 37.8226 33.1978 37.583H41.552V35.0205L48.5312 40.0101L41.552 44.9997Z" fill="white"/>
<path fill-rule="evenodd" clip-rule="evenodd" d="M36.1353 26.4899C36.1353 28.7087 35.6978 30.8649 34.8437 32.8962C34.1145 34.6253 33.0937 36.2087 31.8228 37.5941C31.6562 37.7712 31.4895 37.9482 31.3228 38.1253C31.1666 38.2816 31.0103 38.4274 30.8541 38.5837C29.6249 39.7191 28.2499 40.6462 26.7499 41.3649C26.5416 41.4691 26.3228 41.5628 26.1041 41.6566C26.0937 41.6566 26.0937 41.667 26.0833 41.667C24.8333 42.1982 23.4895 42.4587 22.1249 42.4587H0.458252V37.6149H20.5728C26.6562 37.6149 31.6458 32.7503 31.7291 26.667C31.7291 26.6149 31.7291 26.5628 31.7291 26.5107C31.7291 19.8649 26.3333 14.4691 19.6874 14.4691C13.0416 14.4482 7.64575 19.8337 7.64575 26.4899H10.4374L5.44784 33.4691L0.458252 26.4899H3.24992C3.24992 24.2712 3.68742 22.1149 4.54159 20.0837C5.37492 18.1253 6.552 16.3649 8.06242 14.8545C9.57284 13.3441 11.3333 12.1566 13.2916 11.3337C15.3228 10.4795 17.4791 10.042 19.6978 10.042C20.1458 10.042 20.5833 10.0628 21.0208 10.0941C22.3124 10.1982 23.5728 10.4482 24.802 10.8545C25.2395 11.0003 25.6666 11.1566 26.0937 11.3441C28.052 12.1774 29.8124 13.3545 31.3228 14.8649C32.8333 16.3753 34.0208 18.1357 34.8437 20.0941C35.6978 22.1149 36.1353 24.2712 36.1353 26.4899Z" fill="white"/>
</g>
<defs>
<clipPath id="clip0_7568_1055">
<rect width="48.0833" height="45" fill="white" transform="translate(0.458252)"/>
</clipPath>
</defs>
</svg>
